<svg xmlns="http://www.w3.org/2000/svg" width="1440" height="900"><path d="M724,479L682,513L711,562Z" fill="#72c5c8" stroke="#72c5c8" stroke-width="1.51"/><path d="M711,562L773,581L724,479Z" fill="#6ac1cb" stroke="#6ac1cb" stroke-width="1.51"/><path d="M773,581L811,481L724,479Z" fill="#6bc1cb" stroke="#6bc1cb" stroke-width="1.51"/><path d="M711,562L736,648L773,581Z" fill="#61b8ca" stroke="#61b8ca" stroke-width="1.51"/><path d="M648,640L736,648L711,562Z" fill="#65b7c6" stroke="#65b7c6" stroke-width="1.51"/><path d="M724,479L622,445L682,513Z" fill="#7ccac4" stroke="#7ccac4" stroke-width="1.51"/><path d="M682,513L648,640L711,562Z" fill="#6dc0c9" stroke="#6dc0c9" stroke-width="1.51"/><path d="M709,366L622,445L724,479Z" fill="#85cfc1" stroke="#85cfc1" stroke-width="1.51"/><path d="M811,481L770,400L724,479Z" fill="#76c8c6" stroke="#76c8c6" stroke-width="1.51"/><path d="M580,618L648,640L682,513Z" fill="#71bec6" stroke="#71bec6" stroke-width="1.51"/><path d="M773,581L852,603L811,481Z" fill="#5dbacf" stroke="#5dbacf" stroke-width="1.51"/><path d="M736,648L852,603L773,581Z" fill="#59b2ca" stroke="#59b2ca" stroke-width="1.51"/><path d="M770,400L709,366L724,479Z" fill="#81cdc2" stroke="#81cdc2" stroke-width="1.51"/><path d="M622,445L576,466L682,513Z" fill="#84cdc2" stroke="#84cdc2" stroke-width="1.51"/><path d="M598,351L576,466L622,445Z" fill="#92d3bd" stroke="#92d3bd" stroke-width="1.51"/><path d="M811,481L863,445L770,400Z" fill="#73c6c8" stroke="#73c6c8" stroke-width="1.51"/><path d="M770,400L783,288L709,366Z" fill="#8dd1bf" stroke="#8dd1bf" stroke-width="1.51"/><path d="M928,462L863,445L931,576Z" fill="#5eb9ce" stroke="#5eb9ce" stroke-width="1.51"/><path d="M576,466L580,618L682,513Z" fill="#7dc8c5" stroke="#7dc8c5" stroke-width="1.51"/><path d="M576,466L543,483L580,618Z" fill="#85cbc3" stroke="#85cbc3" stroke-width="1.51"/><path d="M475,371L543,483L576,466Z" fill="#96d5bd" stroke="#96d5bd" stroke-width="1.51"/><path d="M648,640L643,772L736,648Z" fill="#61abbf" stroke="#61abbf" stroke-width="1.51"/><path d="M580,618L602,678L648,640Z" fill="#70b5c0" stroke="#70b5c0" stroke-width="1.51"/><path d="M709,366L598,351L622,445Z" fill="#93d4bd" stroke="#93d4bd" stroke-width="1.51"/><path d="M931,576L863,445L811,481Z" fill="#61bcce" stroke="#61bcce" stroke-width="1.51"/><path d="M736,648L855,688L852,603Z" fill="#50aac8" stroke="#50aac8" stroke-width="1.51"/><path d="M758,781L855,688L736,648Z" fill="#50a2c1" stroke="#50a2c1" stroke-width="1.51"/><path d="M931,576L811,481L852,603Z" fill="#56b6d1" stroke="#56b6d1" stroke-width="1.51"/><path d="M863,445L878,354L770,400Z" fill="#7bc8c6" stroke="#7bc8c6" stroke-width="1.51"/><path d="M966,683L931,576L852,603Z" fill="#44a7cc" stroke="#44a7cc" stroke-width="1.51"/><path d="M930,370L878,354L863,445Z" fill="#78c4c7" stroke="#78c4c7" stroke-width="1.51"/><path d="M709,366L677,290L598,351Z" fill="#9bd7ba" stroke="#9bd7ba" stroke-width="1.51"/><path d="M543,483L496,577L580,618Z" fill="#83c8c5" stroke="#83c8c5" stroke-width="1.51"/><path d="M580,618L478,694L602,678Z" fill="#76b5bc" stroke="#76b5bc" stroke-width="1.51"/><path d="M456,517L496,577L543,483Z" fill="#8ccdc4" stroke="#8ccdc4" stroke-width="1.51"/><path d="M783,288L677,290L709,366Z" fill="#96d6be" stroke="#96d6be" stroke-width="1.51"/><path d="M878,354L783,288L770,400Z" fill="#89cdc1" stroke="#89cdc1" stroke-width="1.51"/><path d="M602,678L613,736L648,640Z" fill="#6aaebd" stroke="#6aaebd" stroke-width="1.51"/><path d="M505,756L613,736L602,678Z" fill="#6ea9b8" stroke="#6ea9b8" stroke-width="1.51"/><path d="M855,688L966,683L852,603Z" fill="#42a3ca" stroke="#42a3ca" stroke-width="1.51"/><path d="M758,781L882,718L855,688Z" fill="#469bc1" stroke="#469bc1" stroke-width="1.51"/><path d="M878,354L846,270L783,288Z" fill="#8fcec4" stroke="#8fcec4" stroke-width="1.51"/><path d="M928,462L930,370L863,445Z" fill="#6dc0ca" stroke="#6dc0ca" stroke-width="1.51"/><path d="M996,446L930,370L928,462Z" fill="#6abcc7" stroke="#6abcc7" stroke-width="1.51"/><path d="M931,576L984,541L928,462Z" fill="#53b1ce" stroke="#53b1ce" stroke-width="1.51"/><path d="M966,683L984,541L931,576Z" fill="#44a6cc" stroke="#44a6cc" stroke-width="1.51"/><path d="M643,772L758,781L736,648Z" fill="#58a2bd" stroke="#58a2bd" stroke-width="1.51"/><path d="M613,736L643,772L648,640Z" fill="#66a8bb" stroke="#66a8bb" stroke-width="1.51"/><path d="M930,370L915,337L878,354Z" fill="#7fc6c5" stroke="#7fc6c5" stroke-width="1.51"/><path d="M427,441L456,517L543,483Z" fill="#96d3c2" stroke="#96d3c2" stroke-width="1.51"/><path d="M677,290L592,251L598,351Z" fill="#a5dbbc" stroke="#a5dbbc" stroke-width="1.51"/><path d="M598,351L495,346L576,466Z" fill="#9dd8b9" stroke="#9dd8b9" stroke-width="1.51"/><path d="M725,212L664,260L677,290Z" fill="#a5dbc1" stroke="#a5dbc1" stroke-width="1.51"/><path d="M783,288L725,212L677,290Z" fill="#9fd8c3" stroke="#9fd8c3" stroke-width="1.51"/><path d="M915,337L846,270L878,354Z" fill="#88cac5" stroke="#88cac5" stroke-width="1.51"/><path d="M984,541L996,446L928,462Z" fill="#5cb4ca" stroke="#5cb4ca" stroke-width="1.51"/><path d="M930,370L989,328L915,337Z" fill="#7ec2c3" stroke="#7ec2c3" stroke-width="1.51"/><path d="M592,251L495,346L598,351Z" fill="#a9ddb8" stroke="#a9ddb8" stroke-width="1.51"/><path d="M495,346L475,371L576,466Z" fill="#a0d9ba" stroke="#a0d9ba" stroke-width="1.51"/><path d="M882,718L966,683L855,688Z" fill="#3d9cc7" stroke="#3d9cc7" stroke-width="1.51"/><path d="M912,772L966,683L882,718Z" fill="#3895c4" stroke="#3895c4" stroke-width="1.51"/><path d="M496,577L478,694L580,618Z" fill="#7ebcbf" stroke="#7ebcbf" stroke-width="1.51"/><path d="M613,736L505,756L643,772Z" fill="#6aa4b6" stroke="#6aa4b6" stroke-width="1.51"/><path d="M410,663L478,694L496,577Z" fill="#83bbc1" stroke="#83bbc1" stroke-width="1.51"/><path d="M664,260L592,251L677,290Z" fill="#a8dcbf" stroke="#a8dcbf" stroke-width="1.51"/><path d="M653,169L592,251L664,260Z" fill="#afe0c1" stroke="#afe0c1" stroke-width="1.51"/><path d="M456,517L391,606L496,577Z" fill="#8dcbc8" stroke="#8dcbc8" stroke-width="1.51"/><path d="M475,371L427,441L543,483Z" fill="#9dd8be" stroke="#9dd8be" stroke-width="1.51"/><path d="M846,270L725,212L783,288Z" fill="#9bd5c5" stroke="#9bd5c5" stroke-width="1.51"/><path d="M984,541L1036,499L996,446Z" fill="#56afc9" stroke="#56afc9" stroke-width="1.51"/><path d="M996,446L989,328L930,370Z" fill="#74bcc4" stroke="#74bcc4" stroke-width="1.51"/><path d="M1146,540L1036,499L984,541Z" fill="#4ba6c8" stroke="#4ba6c8" stroke-width="1.51"/><path d="M850,838L912,772L882,718Z" fill="#3a90c0" stroke="#3a90c0" stroke-width="1.51"/><path d="M758,781L850,838L882,718Z" fill="#4393bd" stroke="#4393bd" stroke-width="1.51"/><path d="M643,772L739,838L758,781Z" fill="#5497b6" stroke="#5497b6" stroke-width="1.51"/><path d="M695,860L739,838L643,772Z" fill="#5693b1" stroke="#5693b1" stroke-width="1.51"/><path d="M478,694L505,756L602,678Z" fill="#75aeb9" stroke="#75aeb9" stroke-width="1.51"/><path d="M915,337L943,199L846,270Z" fill="#8fccca" stroke="#8fccca" stroke-width="1.51"/><path d="M725,112L653,169L725,212Z" fill="#addfca" stroke="#addfca" stroke-width="1.51"/><path d="M1107,428L989,328L996,446Z" fill="#6bb4c2" stroke="#6bb4c2" stroke-width="1.51"/><path d="M475,371L457,324L427,441Z" fill="#aaddbc" stroke="#aaddbc" stroke-width="1.51"/><path d="M495,346L457,324L475,371Z" fill="#addfb8" stroke="#addfb8" stroke-width="1.51"/><path d="M526,206L457,324L495,346Z" fill="#b5e2ba" stroke="#b5e2ba" stroke-width="1.51"/><path d="M602,877L695,860L643,772Z" fill="#5d92ac" stroke="#5d92ac" stroke-width="1.51"/><path d="M739,838L850,838L758,781Z" fill="#498eb5" stroke="#498eb5" stroke-width="1.51"/><path d="M851,904L850,838L739,838Z" fill="#4284ae" stroke="#4284ae" stroke-width="1.51"/><path d="M317,541L391,606L456,517Z" fill="#94cfcb" stroke="#94cfcb" stroke-width="1.51"/><path d="M478,694L421,723L505,756Z" fill="#7baeba" stroke="#7baeba" stroke-width="1.51"/><path d="M391,606L410,663L496,577Z" fill="#89c2c5" stroke="#89c2c5" stroke-width="1.51"/><path d="M912,772L996,733L966,683Z" fill="#3490c1" stroke="#3490c1" stroke-width="1.51"/><path d="M966,683L1035,686L984,541Z" fill="#3b9bc6" stroke="#3b9bc6" stroke-width="1.51"/><path d="M906,838L996,733L912,772Z" fill="#318abe" stroke="#318abe" stroke-width="1.51"/><path d="M996,733L1035,686L966,683Z" fill="#3290c1" stroke="#3290c1" stroke-width="1.51"/><path d="M725,212L653,169L664,260Z" fill="#acdec4" stroke="#acdec4" stroke-width="1.51"/><path d="M592,251L526,206L495,346Z" fill="#b3e2ba" stroke="#b3e2ba" stroke-width="1.51"/><path d="M725,112L725,212L817,108Z" fill="#aadcce" stroke="#aadcce" stroke-width="1.51"/><path d="M410,663L421,723L478,694Z" fill="#81b4be" stroke="#81b4be" stroke-width="1.51"/><path d="M505,756L602,877L643,772Z" fill="#689cb1" stroke="#689cb1" stroke-width="1.51"/><path d="M293,670L421,723L410,663Z" fill="#88b8c1" stroke="#88b8c1" stroke-width="1.51"/><path d="M850,838L906,838L912,772Z" fill="#3688b9" stroke="#3688b9" stroke-width="1.51"/><path d="M851,904L906,838L850,838Z" fill="#3981b0" stroke="#3981b0" stroke-width="1.51"/><path d="M589,123L526,206L592,251Z" fill="#bae4c1" stroke="#bae4c1" stroke-width="1.51"/><path d="M780,957L851,904L739,838Z" fill="#447ea5" stroke="#447ea5" stroke-width="1.51"/><path d="M492,868L602,877L505,756Z" fill="#6d97a9" stroke="#6d97a9" stroke-width="1.51"/><path d="M427,441L349,457L456,517Z" fill="#9ed7c4" stroke="#9ed7c4" stroke-width="1.51"/><path d="M391,606L293,670L410,663Z" fill="#8cbfc5" stroke="#8cbfc5" stroke-width="1.51"/><path d="M337,284L349,457L427,441Z" fill="#afdfc1" stroke="#afdfc1" stroke-width="1.51"/><path d="M294,436L349,457L337,284Z" fill="#b3e1c2" stroke="#b3e1c2" stroke-width="1.51"/><path d="M994,239L943,199L915,337Z" fill="#8dc7c7" stroke="#8dc7c7" stroke-width="1.51"/><path d="M989,328L994,239L915,337Z" fill="#85c2c3" stroke="#85c2c3" stroke-width="1.51"/><path d="M1084,251L994,239L989,328Z" fill="#86bdc2" stroke="#86bdc2" stroke-width="1.51"/><path d="M1036,499L1107,428L996,446Z" fill="#5caec4" stroke="#5caec4" stroke-width="1.51"/><path d="M1135,477L1107,428L1036,499Z" fill="#56a8c2" stroke="#56a8c2" stroke-width="1.51"/><path d="M1084,739L1035,686L996,733Z" fill="#2b89bd" stroke="#2b89bd" stroke-width="1.51"/><path d="M780,957L739,838L695,860Z" fill="#4c84a7" stroke="#4c84a7" stroke-width="1.51"/><path d="M349,457L317,541L456,517Z" fill="#9dd5c8" stroke="#9dd5c8" stroke-width="1.51"/><path d="M817,108L725,212L846,270Z" fill="#a2d7cb" stroke="#a2d7cb" stroke-width="1.51"/><path d="M653,169L589,123L592,251Z" fill="#b7e2c4" stroke="#b7e2c4" stroke-width="1.51"/><path d="M1146,540L1135,477L1036,499Z" fill="#4da3c4" stroke="#4da3c4" stroke-width="1.51"/><path d="M1035,686L1159,613L984,541Z" fill="#3898c5" stroke="#3898c5" stroke-width="1.51"/><path d="M1084,739L1109,680L1035,686Z" fill="#2988bc" stroke="#2988bc" stroke-width="1.51"/><path d="M1084,739L996,733L1056,855Z" fill="#257fb8" stroke="#257fb8" stroke-width="1.51"/><path d="M416,804L492,868L505,756Z" fill="#759eb0" stroke="#759eb0" stroke-width="1.51"/><path d="M602,877L695,952L695,860Z" fill="#5785a1" stroke="#5785a1" stroke-width="1.51"/><path d="M416,804L505,756L421,723Z" fill="#7ba8b8" stroke="#7ba8b8" stroke-width="1.51"/><path d="M362,807L416,804L421,723Z" fill="#7fa7b9" stroke="#7fa7b9" stroke-width="1.51"/><path d="M620,82L589,123L653,169Z" fill="#bae4ca" stroke="#bae4ca" stroke-width="1.51"/><path d="M1056,855L996,733L906,838Z" fill="#2b7fb6" stroke="#2b7fb6" stroke-width="1.51"/><path d="M1159,613L1146,540L984,541Z" fill="#3d9dc7" stroke="#3d9dc7" stroke-width="1.51"/><path d="M910,118L817,108L846,270Z" fill="#a0d4d1" stroke="#a0d4d1" stroke-width="1.51"/><path d="M612,950L695,952L602,877Z" fill="#5a86a0" stroke="#5a86a0" stroke-width="1.51"/><path d="M526,206L389,217L457,324Z" fill="#bfe6bf" stroke="#bfe6bf" stroke-width="1.51"/><path d="M589,123L539,131L526,206Z" fill="#bfe6c4" stroke="#bfe6c4" stroke-width="1.51"/><path d="M349,457L261,483L317,541Z" fill="#a3d7cb" stroke="#a3d7cb" stroke-width="1.51"/><path d="M337,284L427,441L457,324Z" fill="#b4e1bc" stroke="#b4e1bc" stroke-width="1.51"/><path d="M695,952L780,957L695,860Z" fill="#4d83a3" stroke="#4d83a3" stroke-width="1.51"/><path d="M851,904L925,917L906,838Z" fill="#347aac" stroke="#347aac" stroke-width="1.51"/><path d="M726,1019L853,999L780,957Z" fill="#457ea5" stroke="#457ea5" stroke-width="1.51"/><path d="M534,955L612,950L602,877Z" fill="#62889e" stroke="#62889e" stroke-width="1.51"/><path d="M725,112L709,78L653,169Z" fill="#b2e0ce" stroke="#b2e0ce" stroke-width="1.51"/><path d="M589,123L543,23L539,131Z" fill="#c4e8ca" stroke="#c4e8ca" stroke-width="1.51"/><path d="M752,28L709,78L725,112Z" fill="#b3e1d3" stroke="#b3e1d3" stroke-width="1.51"/><path d="M1146,540L1167,502L1135,477Z" fill="#4a9ec2" stroke="#4a9ec2" stroke-width="1.51"/><path d="M1224,410L1163,356L1107,428Z" fill="#65a6ba" stroke="#65a6ba" stroke-width="1.51"/><path d="M1142,288L1084,251L989,328Z" fill="#80b7be" stroke="#80b7be" stroke-width="1.51"/><path d="M1249,579L1167,502L1146,540Z" fill="#4096c2" stroke="#4096c2" stroke-width="1.51"/><path d="M853,999L925,917L851,904Z" fill="#3779a8" stroke="#3779a8" stroke-width="1.51"/><path d="M817,108L752,28L725,112Z" fill="#afddd5" stroke="#afddd5" stroke-width="1.51"/><path d="M943,199L910,118L846,270Z" fill="#99d0d0" stroke="#99d0d0" stroke-width="1.51"/><path d="M1001,147L910,118L943,199Z" fill="#99cbd1" stroke="#99cbd1" stroke-width="1.51"/><path d="M1109,680L1159,613L1035,686Z" fill="#2d8cbe" stroke="#2d8cbe" stroke-width="1.51"/><path d="M1174,692L1159,613L1109,680Z" fill="#2a87bc" stroke="#2a87bc" stroke-width="1.51"/><path d="M994,239L1001,147L943,199Z" fill="#93c7cb" stroke="#93c7cb" stroke-width="1.51"/><path d="M1142,288L989,328L1107,428Z" fill="#74b2bb" stroke="#74b2bb" stroke-width="1.51"/><path d="M709,78L620,82L653,169Z" fill="#b7e3cd" stroke="#b7e3cd" stroke-width="1.51"/><path d="M411,165L389,217L526,206Z" fill="#c7e9c4" stroke="#c7e9c4" stroke-width="1.51"/><path d="M411,165L526,206L539,131Z" fill="#c4e8c4" stroke="#c4e8c4" stroke-width="1.51"/><path d="M389,217L337,284L457,324Z" fill="#c1e7c0" stroke="#c1e7c0" stroke-width="1.51"/><path d="M261,616L293,670L391,606Z" fill="#91c3c9" stroke="#91c3c9" stroke-width="1.51"/><path d="M261,616L391,606L317,541Z" fill="#95cbcd" stroke="#95cbcd" stroke-width="1.51"/><path d="M309,767L362,807L421,723Z" fill="#83aabc" stroke="#83aabc" stroke-width="1.51"/><path d="M416,804L430,927L492,868Z" fill="#7494a7" stroke="#7494a7" stroke-width="1.51"/><path d="M492,868L534,955L602,877Z" fill="#678a9c" stroke="#678a9c" stroke-width="1.51"/><path d="M294,436L261,483L349,457Z" fill="#a8dcc9" stroke="#a8dcc9" stroke-width="1.51"/><path d="M265,419L261,483L294,436Z" fill="#acdeca" stroke="#acdeca" stroke-width="1.51"/><path d="M1084,251L1001,147L994,239Z" fill="#8fc0c6" stroke="#8fc0c6" stroke-width="1.51"/><path d="M1224,410L1107,428L1135,477Z" fill="#5aa4bd" stroke="#5aa4bd" stroke-width="1.51"/><path d="M262,319L265,419L294,436Z" fill="#b6e2c6" stroke="#b6e2c6" stroke-width="1.51"/><path d="M1084,739L1174,692L1109,680Z" fill="#2583b9" stroke="#2583b9" stroke-width="1.51"/><path d="M1034,909L1056,855L906,838Z" fill="#2873aa" stroke="#2873aa" stroke-width="1.51"/><path d="M187,539L261,616L317,541Z" fill="#9cd1d3" stroke="#9cd1d3" stroke-width="1.51"/><path d="M293,670L309,767L421,723Z" fill="#88b2c0" stroke="#88b2c0" stroke-width="1.51"/><path d="M430,927L534,955L492,868Z" fill="#6d8c9f" stroke="#6d8c9f" stroke-width="1.51"/><path d="M612,950L675,1029L695,952Z" fill="#5785a1" stroke="#5785a1" stroke-width="1.51"/><path d="M389,217L321,261L337,284Z" fill="#c8e9c3" stroke="#c8e9c3" stroke-width="1.51"/><path d="M403,58L411,165L539,131Z" fill="#cdeccb" stroke="#cdeccb" stroke-width="1.51"/><path d="M1084,251L1122,138L1001,147Z" fill="#8fbdc7" stroke="#8fbdc7" stroke-width="1.51"/><path d="M1163,356L1142,288L1107,428Z" fill="#70acb9" stroke="#70acb9" stroke-width="1.51"/><path d="M337,284L262,319L294,436Z" fill="#bce5c1" stroke="#bce5c1" stroke-width="1.51"/><path d="M326,171L321,261L389,217Z" fill="#ceecc7" stroke="#ceecc7" stroke-width="1.51"/><path d="M1317,476L1224,410L1167,502Z" fill="#519abb" stroke="#519abb" stroke-width="1.51"/><path d="M1167,502L1224,410L1135,477Z" fill="#54a0bd" stroke="#54a0bd" stroke-width="1.51"/><path d="M1177,788L1174,692L1084,739Z" fill="#1f7bb6" stroke="#1f7bb6" stroke-width="1.51"/><path d="M362,807L430,927L416,804Z" fill="#799aac" stroke="#799aac" stroke-width="1.51"/><path d="M206,716L309,767L293,670Z" fill="#8cb4c4" stroke="#8cb4c4" stroke-width="1.51"/><path d="M534,955L594,992L612,950Z" fill="#62889e" stroke="#62889e" stroke-width="1.51"/><path d="M1056,855L1094,845L1084,739Z" fill="#1e75b0" stroke="#1e75b0" stroke-width="1.51"/><path d="M1106,907L1094,845L1056,855Z" fill="#1d6aa5" stroke="#1d6aa5" stroke-width="1.51"/><path d="M709,78L654,-2L620,82Z" fill="#bde5d2" stroke="#bde5d2" stroke-width="1.51"/><path d="M620,82L543,23L589,123Z" fill="#c3e8cd" stroke="#c3e8cd" stroke-width="1.51"/><path d="M846,35L752,28L817,108Z" fill="#aedbd8" stroke="#aedbd8" stroke-width="1.51"/><path d="M846,35L817,108L910,118Z" fill="#a7d7d8" stroke="#a7d7d8" stroke-width="1.51"/><path d="M925,917L1034,909L906,838Z" fill="#2d74a9" stroke="#2d74a9" stroke-width="1.51"/><path d="M780,957L853,999L851,904Z" fill="#3f7ca7" stroke="#3f7ca7" stroke-width="1.51"/><path d="M726,1019L780,957L695,952Z" fill="#4c82a3" stroke="#4c82a3" stroke-width="1.51"/><path d="M924,995L1034,909L925,917Z" fill="#2c71a6" stroke="#2c71a6" stroke-width="1.51"/><path d="M675,1029L726,1019L695,952Z" fill="#5183a2" stroke="#5183a2" stroke-width="1.51"/><path d="M534,955L512,1021L594,992Z" fill="#678a9d" stroke="#678a9d" stroke-width="1.51"/><path d="M303,899L430,927L362,807Z" fill="#7a95a8" stroke="#7a95a8" stroke-width="1.51"/><path d="M952,64L846,35L910,118Z" fill="#a4d4db" stroke="#a4d4db" stroke-width="1.51"/><path d="M261,616L235,644L293,670Z" fill="#93c2cb" stroke="#93c2cb" stroke-width="1.51"/><path d="M187,539L235,644L261,616Z" fill="#9acbd1" stroke="#9acbd1" stroke-width="1.51"/><path d="M187,539L317,541L261,483Z" fill="#a2d6d0" stroke="#a2d6d0" stroke-width="1.51"/><path d="M321,261L262,319L337,284Z" fill="#c5e8c3" stroke="#c5e8c3" stroke-width="1.51"/><path d="M183,435L196,509L261,483Z" fill="#aadcd0" stroke="#aadcd0" stroke-width="1.51"/><path d="M241,203L262,319L321,261Z" fill="#ccebc7" stroke="#ccebc7" stroke-width="1.51"/><path d="M594,992L675,1029L612,950Z" fill="#5c879f" stroke="#5c879f" stroke-width="1.51"/><path d="M1027,1024L924,995L853,999Z" fill="#2f73a7" stroke="#2f73a7" stroke-width="1.51"/><path d="M512,1021L675,1029L594,992Z" fill="#61889e" stroke="#61889e" stroke-width="1.51"/><path d="M984,13L952,64L1023,31Z" fill="#a2ccd9" stroke="#a2ccd9" stroke-width="1.51"/><path d="M1001,147L952,64L910,118Z" fill="#9dccd5" stroke="#9dccd5" stroke-width="1.51"/><path d="M1288,343L1162,229L1142,288Z" fill="#7aa9b8" stroke="#7aa9b8" stroke-width="1.51"/><path d="M1249,579L1146,540L1159,613Z" fill="#3692c2" stroke="#3692c2" stroke-width="1.51"/><path d="M853,999L924,995L925,917Z" fill="#3277a9" stroke="#3277a9" stroke-width="1.51"/><path d="M1027,1024L853,999L726,1019Z" fill="#3879a8" stroke="#3879a8" stroke-width="1.51"/><path d="M1214,804L1177,788L1218,900Z" fill="#1265a6" stroke="#1265a6" stroke-width="1.51"/><path d="M1094,845L1177,788L1084,739Z" fill="#1b75b3" stroke="#1b75b3" stroke-width="1.51"/><path d="M1174,692L1249,579L1159,613Z" fill="#2d88bd" stroke="#2d88bd" stroke-width="1.51"/><path d="M1142,288L1162,229L1084,251Z" fill="#82b3be" stroke="#82b3be" stroke-width="1.51"/><path d="M1288,343L1142,288L1163,356Z" fill="#73a7b5" stroke="#73a7b5" stroke-width="1.51"/><path d="M183,435L261,483L265,419Z" fill="#aedfcc" stroke="#aedfcc" stroke-width="1.51"/><path d="M752,28L654,-2L709,78Z" fill="#bae3d6" stroke="#bae3d6" stroke-width="1.51"/><path d="M760,-82L654,-2L752,28Z" fill="#bce4da" stroke="#bce4da" stroke-width="1.51"/><path d="M1271,695L1249,579L1174,692Z" fill="#2580b9" stroke="#2580b9" stroke-width="1.51"/><path d="M309,767L283,815L362,807Z" fill="#84a6bb" stroke="#84a6bb" stroke-width="1.51"/><path d="M206,716L283,815L309,767Z" fill="#88acc1" stroke="#88acc1" stroke-width="1.51"/><path d="M206,716L293,670L235,644Z" fill="#90bcc9" stroke="#90bcc9" stroke-width="1.51"/><path d="M403,58L326,171L411,165Z" fill="#d3eecd" stroke="#d3eecd" stroke-width="1.51"/><path d="M411,165L326,171L389,217Z" fill="#ceecc8" stroke="#ceecc8" stroke-width="1.51"/><path d="M626,-26L543,23L620,82Z" fill="#c7e9d2" stroke="#c7e9d2" stroke-width="1.51"/><path d="M196,509L187,539L261,483Z" fill="#a6d7d2" stroke="#a6d7d2" stroke-width="1.51"/><path d="M430,927L512,1021L534,955Z" fill="#6d8c9e" stroke="#6d8c9e" stroke-width="1.51"/><path d="M385,1039L512,1021L430,927Z" fill="#718ea1" stroke="#718ea1" stroke-width="1.51"/><path d="M1133,989L1106,907L1034,909Z" fill="#1d649f" stroke="#1d649f" stroke-width="1.51"/><path d="M1034,909L1106,907L1056,855Z" fill="#1f68a2" stroke="#1f68a2" stroke-width="1.51"/><path d="M196,509L80,459L187,539Z" fill="#aadad5" stroke="#aadad5" stroke-width="1.51"/><path d="M262,319L183,435L265,419Z" fill="#b8e3c8" stroke="#b8e3c8" stroke-width="1.51"/><path d="M136,330L183,435L262,319Z" fill="#bfe6c8" stroke="#bfe6c8" stroke-width="1.51"/><path d="M846,35L795,-25L752,28Z" fill="#b3dedc" stroke="#b3dedc" stroke-width="1.51"/><path d="M879,-46L795,-25L846,35Z" fill="#b1dbdf" stroke="#b1dbdf" stroke-width="1.51"/><path d="M1162,229L1122,138L1084,251Z" fill="#89b6c3" stroke="#89b6c3" stroke-width="1.51"/><path d="M952,64L913,-4L846,35Z" fill="#a9d5df" stroke="#a9d5df" stroke-width="1.51"/><path d="M149,726L206,716L118,687Z" fill="#92b8cc" stroke="#92b8cc" stroke-width="1.51"/><path d="M654,-2L626,-26L620,82Z" fill="#c3e8d5" stroke="#c3e8d5" stroke-width="1.51"/><path d="M698,-123L626,-26L654,-2Z" fill="#c3e7d7" stroke="#c3e7d7" stroke-width="1.51"/><path d="M984,13L913,-4L952,64Z" fill="#a6d0dc" stroke="#a6d0dc" stroke-width="1.51"/><path d="M345,25L403,58L345,-3Z" fill="#dff3d8" stroke="#dff3d8" stroke-width="1.51"/><path d="M543,23L403,58L539,131Z" fill="#cdecce" stroke="#cdecce" stroke-width="1.51"/><path d="M209,906L303,899L283,815Z" fill="#8097af" stroke="#8097af" stroke-width="1.51"/><path d="M283,815L303,899L362,807Z" fill="#809db2" stroke="#809db2" stroke-width="1.51"/><path d="M1214,804L1253,720L1177,788Z" fill="#136fb0" stroke="#136fb0" stroke-width="1.51"/><path d="M1177,788L1253,720L1174,692Z" fill="#1b76b3" stroke="#1b76b3" stroke-width="1.51"/><path d="M1218,900L1177,788L1094,845Z" fill="#1667a6" stroke="#1667a6" stroke-width="1.51"/><path d="M1023,31L952,64L1001,147Z" fill="#9dcad5" stroke="#9dcad5" stroke-width="1.51"/><path d="M1253,720L1271,695L1174,692Z" fill="#1d78b5" stroke="#1d78b5" stroke-width="1.51"/><path d="M1299,378L1288,343L1224,410Z" fill="#659cb3" stroke="#659cb3" stroke-width="1.51"/><path d="M1338,647L1271,695L1357,787Z" fill="#196daa" stroke="#196daa" stroke-width="1.51"/><path d="M1109,77L1023,31L1001,147Z" fill="#99c3d2" stroke="#99c3d2" stroke-width="1.51"/><path d="M326,171L241,203L321,261Z" fill="#d1edca" stroke="#d1edca" stroke-width="1.51"/><path d="M270,145L241,203L326,171Z" fill="#d5efcf" stroke="#d5efcf" stroke-width="1.51"/><path d="M924,995L1027,1024L1034,909Z" fill="#286da4" stroke="#286da4" stroke-width="1.51"/><path d="M1106,907L1218,900L1094,845Z" fill="#19629f" stroke="#19629f" stroke-width="1.51"/><path d="M675,1029L1027,1024L726,1019Z" fill="#417da6" stroke="#417da6" stroke-width="1.51"/><path d="M1122,138L1109,77L1001,147Z" fill="#93becc" stroke="#93becc" stroke-width="1.51"/><path d="M1165,49L1109,77L1122,138Z" fill="#93b9cd" stroke="#93b9cd" stroke-width="1.51"/><path d="M879,-46L913,-4L999,-105Z" fill="#aad3e0" stroke="#aad3e0" stroke-width="1.51"/><path d="M887,-134L879,-46L961,-134Z" fill="#abd6e1" stroke="#abd6e1" stroke-width="1.51"/><path d="M913,-4L879,-46L846,35Z" fill="#aed9e1" stroke="#aed9e1" stroke-width="1.51"/><path d="M795,-25L760,-82L752,28Z" fill="#b8e1dc" stroke="#b8e1dc" stroke-width="1.51"/><path d="M345,25L270,145L326,171Z" fill="#d9f0d3" stroke="#d9f0d3" stroke-width="1.51"/><path d="M1224,410L1288,343L1163,356Z" fill="#69a2b6" stroke="#69a2b6" stroke-width="1.51"/><path d="M1162,229L1209,164L1122,138Z" fill="#8bb2c3" stroke="#8bb2c3" stroke-width="1.51"/><path d="M1299,378L1224,410L1336,431Z" fill="#5e98b3" stroke="#5e98b3" stroke-width="1.51"/><path d="M1317,476L1167,502L1249,579Z" fill="#4393be" stroke="#4393be" stroke-width="1.51"/><path d="M1370,592L1317,476L1249,579Z" fill="#3888b8" stroke="#3888b8" stroke-width="1.51"/><path d="M1243,200L1209,164L1162,229Z" fill="#87aebf" stroke="#87aebf" stroke-width="1.51"/><path d="M879,-46L760,-82L795,-25Z" fill="#b4ddde" stroke="#b4ddde" stroke-width="1.51"/><path d="M440,-42L403,58L543,23Z" fill="#d6efd5" stroke="#d6efd5" stroke-width="1.51"/><path d="M165,158L174,266L241,203Z" fill="#d7efd0" stroke="#d7efd0" stroke-width="1.51"/><path d="M241,203L174,266L262,319Z" fill="#ceecca" stroke="#ceecca" stroke-width="1.51"/><path d="M118,687L235,644L187,539Z" fill="#99c8d2" stroke="#99c8d2" stroke-width="1.51"/><path d="M206,716L132,866L283,815Z" fill="#89a8c1" stroke="#89a8c1" stroke-width="1.51"/><path d="M118,687L206,716L235,644Z" fill="#93bdcc" stroke="#93bdcc" stroke-width="1.51"/><path d="M118,687L187,539L83,573Z" fill="#9fcdd7" stroke="#9fcdd7" stroke-width="1.51"/><path d="M1288,343L1243,200L1162,229Z" fill="#7ea8b9" stroke="#7ea8b9" stroke-width="1.51"/><path d="M174,266L136,330L262,319Z" fill="#c9eaca" stroke="#c9eaca" stroke-width="1.51"/><path d="M340,1031L385,1039L430,927Z" fill="#778fa3" stroke="#778fa3" stroke-width="1.51"/><path d="M512,1021L385,1039L675,1029Z" fill="#698b9d" stroke="#698b9d" stroke-width="1.51"/><path d="M675,1029L1376,1050L1027,1024Z" fill="#256ba2" stroke="#256ba2" stroke-width="1.51"/><path d="M340,1031L430,927L303,899Z" fill="#7990a4" stroke="#7990a4" stroke-width="1.51"/><path d="M1350,148L1273,138L1243,200Z" fill="#86a5bc" stroke="#86a5bc" stroke-width="1.51"/><path d="M1299,378L1389,340L1288,343Z" fill="#6997ab" stroke="#6997ab" stroke-width="1.51"/><path d="M1317,476L1336,431L1224,410Z" fill="#5596b4" stroke="#5596b4" stroke-width="1.51"/><path d="M1369,471L1336,431L1317,476Z" fill="#4f8eaf" stroke="#4f8eaf" stroke-width="1.51"/><path d="M1214,804L1307,839L1253,720Z" fill="#0868ac" stroke="#0868ac" stroke-width="1.51"/><path d="M1027,1024L1133,989L1034,909Z" fill="#2066a0" stroke="#2066a0" stroke-width="1.51"/><path d="M1133,989L1218,900L1106,907Z" fill="#175e9c" stroke="#175e9c" stroke-width="1.51"/><path d="M403,58L345,25L326,171Z" fill="#d9f0d2" stroke="#d9f0d2" stroke-width="1.51"/><path d="M76,207L109,315L174,266Z" fill="#d4eed1" stroke="#d4eed1" stroke-width="1.51"/><path d="M494,-62L543,23L626,-26Z" fill="#ceecd3" stroke="#ceecd3" stroke-width="1.51"/><path d="M512,-106L494,-62L626,-26Z" fill="#cfedd2" stroke="#cfedd2" stroke-width="1.51"/><path d="M1271,695L1338,647L1249,579Z" fill="#267db5" stroke="#267db5" stroke-width="1.51"/><path d="M1357,787L1271,695L1253,720Z" fill="#156cac" stroke="#156cac" stroke-width="1.51"/><path d="M80,459L196,509L183,435Z" fill="#afded2" stroke="#afded2" stroke-width="1.51"/><path d="M217,999L340,1031L303,899Z" fill="#7d92a8" stroke="#7d92a8" stroke-width="1.51"/><path d="M494,-62L440,-42L543,23Z" fill="#d5efd4" stroke="#d5efd4" stroke-width="1.51"/><path d="M887,-134L698,-123L760,-82Z" fill="#b6dfdc" stroke="#b6dfdc" stroke-width="1.51"/><path d="M1023,31L1080,0L984,13Z" fill="#a1c8d9" stroke="#a1c8d9" stroke-width="1.51"/><path d="M1109,77L1080,0L1023,31Z" fill="#9cc2d4" stroke="#9cc2d4" stroke-width="1.51"/><path d="M1165,49L1080,0L1109,77Z" fill="#98bdd2" stroke="#98bdd2" stroke-width="1.51"/><path d="M1165,49L1122,138L1209,164Z" fill="#8fb5c8" stroke="#8fb5c8" stroke-width="1.51"/><path d="M136,330L95,430L183,435Z" fill="#bce5ce" stroke="#bce5ce" stroke-width="1.51"/><path d="M209,906L132,866L186,906Z" fill="#8396b0" stroke="#8396b0" stroke-width="1.51"/><path d="M209,906L283,815L132,866Z" fill="#849bb4" stroke="#849bb4" stroke-width="1.51"/><path d="M80,459L83,573L187,539Z" fill="#aad9d8" stroke="#aad9d8" stroke-width="1.51"/><path d="M760,-82L698,-123L654,-2Z" fill="#bee5d9" stroke="#bee5d9" stroke-width="1.51"/><path d="M887,-134L760,-82L879,-46Z" fill="#b1dbdf" stroke="#b1dbdf" stroke-width="1.51"/><path d="M1273,138L1165,49L1209,164Z" fill="#8dafc6" stroke="#8dafc6" stroke-width="1.51"/><path d="M95,430L80,459L183,435Z" fill="#b6e2d2" stroke="#b6e2d2" stroke-width="1.51"/><path d="M-7,411L80,459L95,430Z" fill="#bbe4d5" stroke="#bbe4d5" stroke-width="1.51"/><path d="M440,-42L345,-3L403,58Z" fill="#def2d8" stroke="#def2d8" stroke-width="1.51"/><path d="M345,25L245,62L270,145Z" fill="#def2d8" stroke="#def2d8" stroke-width="1.51"/><path d="M1370,592L1369,471L1317,476Z" fill="#4287b2" stroke="#4287b2" stroke-width="1.51"/><path d="M1395,243L1243,200L1288,343Z" fill="#799eb1" stroke="#799eb1" stroke-width="1.51"/><path d="M136,330L109,315L95,430Z" fill="#c5e8cd" stroke="#c5e8cd" stroke-width="1.51"/><path d="M174,266L109,315L136,330Z" fill="#ccebcd" stroke="#ccebcd" stroke-width="1.51"/><path d="M165,158L241,203L270,145Z" fill="#d9f0d2" stroke="#d9f0d2" stroke-width="1.51"/><path d="M1428,642L1370,592L1338,647Z" fill="#2873ab" stroke="#2873ab" stroke-width="1.51"/><path d="M1338,647L1370,592L1249,579Z" fill="#2c7fb4" stroke="#2c7fb4" stroke-width="1.51"/><path d="M209,906L217,999L303,899Z" fill="#7f92ab" stroke="#7f92ab" stroke-width="1.51"/><path d="M132,866L206,716L149,726Z" fill="#8daec7" stroke="#8daec7" stroke-width="1.51"/><path d="M68,768L132,866L149,726Z" fill="#8facc8" stroke="#8facc8" stroke-width="1.51"/><path d="M83,573L75,650L118,687Z" fill="#9dc7d5" stroke="#9dc7d5" stroke-width="1.51"/><path d="M22,647L75,650L83,573Z" fill="#a1cad9" stroke="#a1cad9" stroke-width="1.51"/><path d="M494,-62L442,-131L440,-42Z" fill="#d8f0d6" stroke="#d8f0d6" stroke-width="1.51"/><path d="M440,-42L442,-131L345,-3Z" fill="#ddf2d8" stroke="#ddf2d8" stroke-width="1.51"/><path d="M615,-137L512,-106L626,-26Z" fill="#cbebd4" stroke="#cbebd4" stroke-width="1.51"/><path d="M345,-3L245,62L345,25Z" fill="#e1f4db" stroke="#e1f4db" stroke-width="1.51"/><path d="M1218,900L1307,839L1214,804Z" fill="#0c5ea1" stroke="#0c5ea1" stroke-width="1.51"/><path d="M1317,899L1307,839L1218,900Z" fill="#0a5598" stroke="#0a5598" stroke-width="1.51"/><path d="M245,62L165,158L270,145Z" fill="#ddf2d7" stroke="#ddf2d7" stroke-width="1.51"/><path d="M698,-123L615,-137L626,-26Z" fill="#c4e8d7" stroke="#c4e8d7" stroke-width="1.51"/><path d="M1243,200L1273,138L1209,164Z" fill="#87abc0" stroke="#87abc0" stroke-width="1.51"/><path d="M1389,340L1299,378L1336,431Z" fill="#6193ab" stroke="#6193ab" stroke-width="1.51"/><path d="M999,-105L913,-4L984,13Z" fill="#a7d0de" stroke="#a7d0de" stroke-width="1.51"/><path d="M698,-123L887,-134L615,-137Z" fill="#bae3da" stroke="#bae3da" stroke-width="1.51"/><path d="M999,-105L984,13L1080,0Z" fill="#a3c9db" stroke="#a3c9db" stroke-width="1.51"/><path d="M1133,989L1227,978L1218,900Z" fill="#135a9a" stroke="#135a9a" stroke-width="1.51"/><path d="M1376,1050L1227,978L1133,989Z" fill="#0c5597" stroke="#0c5597" stroke-width="1.51"/><path d="M1202,-22L1080,0L1165,49Z" fill="#9abad3" stroke="#9abad3" stroke-width="1.51"/><path d="M1095,-101L999,-105L1080,0Z" fill="#a0c5d9" stroke="#a0c5d9" stroke-width="1.51"/><path d="M168,974L217,999L209,906Z" fill="#8193ad" stroke="#8193ad" stroke-width="1.51"/><path d="M68,768L149,726L118,687Z" fill="#94b6cd" stroke="#94b6cd" stroke-width="1.51"/><path d="M1307,839L1357,787L1253,720Z" fill="#0a64a7" stroke="#0a64a7" stroke-width="1.51"/><path d="M1382,839L1357,787L1307,839Z" fill="#0a589b" stroke="#0a589b" stroke-width="1.51"/><path d="M1414,408L1389,340L1336,431Z" fill="#5e8ea7" stroke="#5e8ea7" stroke-width="1.51"/><path d="M1414,408L1336,431L1369,471Z" fill="#538caa" stroke="#538caa" stroke-width="1.51"/><path d="M1414,408L1369,471L1482,493Z" fill="#4d84a5" stroke="#4d84a5" stroke-width="1.51"/><path d="M168,974L209,906L186,906Z" fill="#8294ae" stroke="#8294ae" stroke-width="1.51"/><path d="M999,-105L961,-134L879,-46Z" fill="#a9d2df" stroke="#a9d2df" stroke-width="1.51"/><path d="M887,-134L292,-150L615,-137Z" fill="#caead5" stroke="#caead5" stroke-width="1.51"/><path d="M1447,568L1369,471L1370,592Z" fill="#387eae" stroke="#387eae" stroke-width="1.51"/><path d="M106,931L168,974L186,906Z" fill="#8494b0" stroke="#8494b0" stroke-width="1.51"/><path d="M75,650L68,768L118,687Z" fill="#97bbd1" stroke="#97bbd1" stroke-width="1.51"/><path d="M22,647L68,768L75,650Z" fill="#9abfd3" stroke="#9abfd3" stroke-width="1.51"/><path d="M1227,978L1317,899L1218,900Z" fill="#0a5497" stroke="#0a5497" stroke-width="1.51"/><path d="M615,-137L442,-131L512,-106Z" fill="#d1edd3" stroke="#d1edd3" stroke-width="1.51"/><path d="M512,-106L442,-131L494,-62Z" fill="#d6efd5" stroke="#d6efd5" stroke-width="1.51"/><path d="M345,-3L271,-60L245,62Z" fill="#e6f5df" stroke="#e6f5df" stroke-width="1.51"/><path d="M-15,558L22,647L83,573Z" fill="#a6d1dd" stroke="#a6d1dd" stroke-width="1.51"/><path d="M-15,558L83,573L80,459Z" fill="#aedadd" stroke="#aedadd" stroke-width="1.51"/><path d="M1357,787L1428,642L1338,647Z" fill="#1c69a5" stroke="#1c69a5" stroke-width="1.51"/><path d="M1461,800L1428,642L1357,787Z" fill="#145d9d" stroke="#145d9d" stroke-width="1.51"/><path d="M106,931L186,906L132,866Z" fill="#8495b0" stroke="#8495b0" stroke-width="1.51"/><path d="M8,324L-7,411L95,430Z" fill="#c5e8d4" stroke="#c5e8d4" stroke-width="1.51"/><path d="M165,158L76,207L174,266Z" fill="#daf1d4" stroke="#daf1d4" stroke-width="1.51"/><path d="M61,118L76,207L165,158Z" fill="#e1f4da" stroke="#e1f4da" stroke-width="1.51"/><path d="M118,33L165,158L245,62Z" fill="#e4f4dd" stroke="#e4f4dd" stroke-width="1.51"/><path d="M1307,54L1202,-22L1165,49Z" fill="#95b1ce" stroke="#95b1ce" stroke-width="1.51"/><path d="M999,-105L1095,-101L961,-134Z" fill="#a3c9db" stroke="#a3c9db" stroke-width="1.51"/><path d="M1307,54L1165,49L1273,138Z" fill="#8fadc8" stroke="#8fadc8" stroke-width="1.51"/><path d="M1202,-22L1095,-101L1080,0Z" fill="#9dbdd5" stroke="#9dbdd5" stroke-width="1.51"/><path d="M1428,642L1447,568L1370,592Z" fill="#2c74a9" stroke="#2c74a9" stroke-width="1.51"/><path d="M1389,340L1395,243L1288,343Z" fill="#7096a8" stroke="#7096a8" stroke-width="1.51"/><path d="M1439,289L1395,243L1389,340Z" fill="#7191a4" stroke="#7191a4" stroke-width="1.51"/><path d="M1439,289L1389,340L1414,408Z" fill="#678da0" stroke="#678da0" stroke-width="1.51"/><path d="M1395,243L1350,148L1243,200Z" fill="#819fb4" stroke="#819fb4" stroke-width="1.51"/><path d="M1549,583L1482,493L1447,568Z" fill="#3779a8" stroke="#3779a8" stroke-width="1.51"/><path d="M1317,899L1382,839L1307,839Z" fill="#0a5295" stroke="#0a5295" stroke-width="1.51"/><path d="M292,-150L271,-60L345,-3Z" fill="#e5f5de" stroke="#e5f5de" stroke-width="1.51"/><path d="M8,324L95,430L109,315Z" fill="#c8e9d0" stroke="#c8e9d0" stroke-width="1.51"/><path d="M59,867L132,866L68,768Z" fill="#8da3c0" stroke="#8da3c0" stroke-width="1.51"/><path d="M-40,456L-15,558L80,459Z" fill="#b6dfdc" stroke="#b6dfdc" stroke-width="1.51"/><path d="M59,867L106,931L132,866Z" fill="#8898b5" stroke="#8898b5" stroke-width="1.51"/><path d="M59,867L68,768L2,844Z" fill="#91a6c4" stroke="#91a6c4" stroke-width="1.51"/><path d="M13,263L8,324L109,315Z" fill="#d3eed2" stroke="#d3eed2" stroke-width="1.51"/><path d="M1317,899L1383,941L1382,839Z" fill="#09498c" stroke="#09498c" stroke-width="1.51"/><path d="M1227,978L1310,978L1317,899Z" fill="#0a5193" stroke="#0a5193" stroke-width="1.51"/><path d="M1376,1050L1310,978L1227,978Z" fill="#094f91" stroke="#094f91" stroke-width="1.51"/><path d="M1342,81L1307,54L1273,138Z" fill="#8ba5c0" stroke="#8ba5c0" stroke-width="1.51"/><path d="M1202,-22L1227,-75L1095,-101Z" fill="#9ab8d3" stroke="#9ab8d3" stroke-width="1.51"/><path d="M1342,81L1273,138L1350,148Z" fill="#87a2bc" stroke="#87a2bc" stroke-width="1.51"/><path d="M1,767L68,768L22,647Z" fill="#99b8d1" stroke="#99b8d1" stroke-width="1.51"/><path d="M1395,243L1439,165L1350,148Z" fill="#7f97ad" stroke="#7f97ad" stroke-width="1.51"/><path d="M1520,390L1439,289L1414,408Z" fill="#62889e" stroke="#62889e" stroke-width="1.51"/><path d="M271,-60L194,-14L245,62Z" fill="#e9f6e2" stroke="#e9f6e2" stroke-width="1.51"/><path d="M76,207L13,263L109,315Z" fill="#d8f0d4" stroke="#d8f0d4" stroke-width="1.51"/><path d="M7,128L13,263L76,207Z" fill="#e2f4db" stroke="#e2f4db" stroke-width="1.51"/><path d="M-92,407L-40,456L-7,411Z" fill="#c0e6d8" stroke="#c0e6d8" stroke-width="1.51"/><path d="M1447,568L1482,493L1369,471Z" fill="#417da7" stroke="#417da7" stroke-width="1.51"/><path d="M1549,583L1447,568L1428,642Z" fill="#2d72a6" stroke="#2d72a6" stroke-width="1.51"/><path d="M1431,99L1342,81L1350,148Z" fill="#869cb7" stroke="#869cb7" stroke-width="1.51"/><path d="M-75,704L1,767L22,647Z" fill="#9cbdd5" stroke="#9cbdd5" stroke-width="1.51"/><path d="M1439,289L1445,270L1395,243Z" fill="#7490a3" stroke="#7490a3" stroke-width="1.51"/><path d="M1554,316L1445,270L1439,289Z" fill="#6f8d9f" stroke="#6f8d9f" stroke-width="1.51"/><path d="M-92,407L-7,411L8,324Z" fill="#c8e9d5" stroke="#c8e9d5" stroke-width="1.51"/><path d="M-7,411L-40,456L80,459Z" fill="#bde4d9" stroke="#bde4d9" stroke-width="1.51"/><path d="M-15,558L-75,704L22,647Z" fill="#a3c9db" stroke="#a3c9db" stroke-width="1.51"/><path d="M80,55L61,118L165,158Z" fill="#e5f5df" stroke="#e5f5df" stroke-width="1.51"/><path d="M194,-14L118,33L245,62Z" fill="#e8f7e2" stroke="#e8f7e2" stroke-width="1.51"/><path d="M1246,-66L1202,-22L1307,54Z" fill="#96b0cf" stroke="#96b0cf" stroke-width="1.51"/><path d="M1246,-66L1227,-75L1202,-22Z" fill="#98b2d0" stroke="#98b2d0" stroke-width="1.51"/><path d="M1095,-101L1290,-119L961,-134Z" fill="#9dbfd5" stroke="#9dbfd5" stroke-width="1.51"/><path d="M1310,978L1383,941L1317,899Z" fill="#094b8d" stroke="#094b8d" stroke-width="1.51"/><path d="M1382,839L1461,800L1357,787Z" fill="#095497" stroke="#095497" stroke-width="1.51"/><path d="M1354,-55L1246,-66L1307,54Z" fill="#94a9c9" stroke="#94a9c9" stroke-width="1.51"/><path d="M1502,891L1461,800L1382,839Z" fill="#094a8b" stroke="#094a8b" stroke-width="1.51"/><path d="M1,767L2,844L68,768Z" fill="#94adcc" stroke="#94adcc" stroke-width="1.51"/><path d="M-15,923L78,982L106,931Z" fill="#8a97b5" stroke="#8a97b5" stroke-width="1.51"/><path d="M-74,829L2,844L1,767Z" fill="#94aac9" stroke="#94aac9" stroke-width="1.51"/><path d="M-15,923L106,931L59,867Z" fill="#8a97b5" stroke="#8a97b5" stroke-width="1.51"/><path d="M106,931L78,982L168,974Z" fill="#8695b2" stroke="#8695b2" stroke-width="1.51"/><path d="M168,974L78,982L217,999Z" fill="#8494b0" stroke="#8494b0" stroke-width="1.51"/><path d="M217,999L-122,1037L340,1031Z" fill="#8495b0" stroke="#8495b0" stroke-width="1.51"/><path d="M118,33L80,55L165,158Z" fill="#e7f5e1" stroke="#e7f5e1" stroke-width="1.51"/><path d="M61,118L7,128L76,207Z" fill="#e5f5de" stroke="#e5f5de" stroke-width="1.51"/><path d="M58,-10L80,55L118,33Z" fill="#eff9e8" stroke="#eff9e8" stroke-width="1.51"/><path d="M194,-14L143,-84L118,33Z" fill="#eef8e7" stroke="#eef8e7" stroke-width="1.51"/><path d="M271,-60L211,-120L194,-14Z" fill="#e9f7e2" stroke="#e9f7e2" stroke-width="1.51"/><path d="M442,-131L292,-150L345,-3Z" fill="#e2f4da" stroke="#e2f4da" stroke-width="1.51"/><path d="M615,-137L292,-150L442,-131Z" fill="#d9f0d6" stroke="#d9f0d6" stroke-width="1.51"/><path d="M961,-134L292,-150L887,-134Z" fill="#bce5d9" stroke="#bce5d9" stroke-width="1.51"/><path d="M1445,270L1439,165L1395,243Z" fill="#7a92a6" stroke="#7a92a6" stroke-width="1.51"/><path d="M1342,81L1354,-55L1307,54Z" fill="#90a4c3" stroke="#90a4c3" stroke-width="1.51"/><path d="M1527,159L1439,165L1445,270Z" fill="#7c91a6" stroke="#7c91a6" stroke-width="1.51"/><path d="M1562,519L1520,390L1482,493Z" fill="#4a81a4" stroke="#4a81a4" stroke-width="1.51"/><path d="M1482,493L1520,390L1414,408Z" fill="#5384a1" stroke="#5384a1" stroke-width="1.51"/><path d="M1461,800L1494,777L1428,642Z" fill="#145b9a" stroke="#145b9a" stroke-width="1.51"/><path d="M1502,891L1494,777L1461,800Z" fill="#094d8f" stroke="#094d8f" stroke-width="1.51"/><path d="M1494,777L1522,685L1428,642Z" fill="#1a619d" stroke="#1a619d" stroke-width="1.51"/><path d="M10,96L7,128L61,118Z" fill="#eaf7e4" stroke="#eaf7e4" stroke-width="1.51"/><path d="M-92,281L-92,407L8,324Z" fill="#d0edd2" stroke="#d0edd2" stroke-width="1.51"/><path d="M-138,562L-75,704L-15,558Z" fill="#a7cfde" stroke="#a7cfde" stroke-width="1.51"/><path d="M292,-150L211,-120L271,-60Z" fill="#e7f6e0" stroke="#e7f6e0" stroke-width="1.51"/><path d="M80,55L10,96L61,118Z" fill="#ebf7e4" stroke="#ebf7e4" stroke-width="1.51"/><path d="M-40,456L-104,517L-15,558Z" fill="#b3ddde" stroke="#b3ddde" stroke-width="1.51"/><path d="M-92,281L8,324L13,263Z" fill="#d8f0d6" stroke="#d8f0d6" stroke-width="1.51"/><path d="M1527,159L1431,99L1439,165Z" fill="#8093ac" stroke="#8093ac" stroke-width="1.51"/><path d="M1439,165L1431,99L1350,148Z" fill="#8297b0" stroke="#8297b0" stroke-width="1.51"/><path d="M-92,407L-104,517L-40,456Z" fill="#bae3da" stroke="#bae3da" stroke-width="1.51"/><path d="M1522,685L1549,583L1428,642Z" fill="#256ba3" stroke="#256ba3" stroke-width="1.51"/><path d="M-75,704L-73,757L1,767Z" fill="#9ab6d2" stroke="#9ab6d2" stroke-width="1.51"/><path d="M2,844L-15,923L59,867Z" fill="#8e9cbb" stroke="#8e9cbb" stroke-width="1.51"/><path d="M-138,562L-73,757L-75,704Z" fill="#9fc2d7" stroke="#9fc2d7" stroke-width="1.51"/><path d="M-99,263L-92,281L13,263Z" fill="#dbf1d7" stroke="#dbf1d7" stroke-width="1.51"/><path d="M58,-10L10,96L80,55Z" fill="#eff9e8" stroke="#eff9e8" stroke-width="1.51"/><path d="M1549,583L1562,519L1482,493Z" fill="#3b7aa8" stroke="#3b7aa8" stroke-width="1.51"/><path d="M1520,390L1554,316L1439,289Z" fill="#698b9d" stroke="#698b9d" stroke-width="1.51"/><path d="M211,-120L143,-84L194,-14Z" fill="#ecf8e5" stroke="#ecf8e5" stroke-width="1.51"/><path d="M1383,941L1502,891L1382,839Z" fill="#084485" stroke="#084485" stroke-width="1.51"/><path d="M1310,978L1376,1050L1383,941Z" fill="#09498b" stroke="#09498b" stroke-width="1.51"/><path d="M1027,1024L1376,1050L1133,989Z" fill="#155b9a" stroke="#155b9a" stroke-width="1.51"/><path d="M385,1039L1376,1050L675,1029Z" fill="#417da6" stroke="#417da6" stroke-width="1.51"/><path d="M-74,829L-15,923L2,844Z" fill="#909fbf" stroke="#909fbf" stroke-width="1.51"/><path d="M-99,263L13,263L7,128Z" fill="#e2f4db" stroke="#e2f4db" stroke-width="1.51"/><path d="M-92,407L-138,562L-104,517Z" fill="#b5dfdd" stroke="#b5dfdd" stroke-width="1.51"/><path d="M-132,168L-99,263L7,128Z" fill="#e5f5de" stroke="#e5f5de" stroke-width="1.51"/><path d="M143,-84L58,-10L118,33Z" fill="#f0faea" stroke="#f0faea" stroke-width="1.51"/><path d="M1444,-28L1354,-55L1342,81Z" fill="#909fbf" stroke="#909fbf" stroke-width="1.51"/><path d="M1246,-66L1290,-119L1227,-75Z" fill="#96afcf" stroke="#96afcf" stroke-width="1.51"/><path d="M1227,-75L1290,-119L1095,-101Z" fill="#99b5d1" stroke="#99b5d1" stroke-width="1.51"/><path d="M-117,958L-74,829L-73,757Z" fill="#91a2c3" stroke="#91a2c3" stroke-width="1.51"/><path d="M-73,757L-74,829L1,767Z" fill="#96afcf" stroke="#96afcf" stroke-width="1.51"/><path d="M1354,-55L1290,-119L1246,-66Z" fill="#94aaca" stroke="#94aaca" stroke-width="1.51"/><path d="M1562,519L1554,316L1520,390Z" fill="#5885a1" stroke="#5885a1" stroke-width="1.51"/><path d="M1431,99L1444,-28L1342,81Z" fill="#8a9ab8" stroke="#8a9ab8" stroke-width="1.51"/><path d="M1522,685L1576,748L1549,583Z" fill="#1e65a0" stroke="#1e65a0" stroke-width="1.51"/><path d="M1549,583L1576,748L1562,519Z" fill="#296ea4" stroke="#296ea4" stroke-width="1.51"/><path d="M1494,777L1576,748L1522,685Z" fill="#155b9a" stroke="#155b9a" stroke-width="1.51"/><path d="M1493,941L1502,891L1383,941Z" fill="#084081" stroke="#084081" stroke-width="1.51"/><path d="M-132,168L7,128L10,96Z" fill="#eaf7e3" stroke="#eaf7e3" stroke-width="1.51"/><path d="M-92,281L-99,263L-92,407Z" fill="#d3eed4" stroke="#d3eed4" stroke-width="1.51"/><path d="M-104,517L-138,562L-15,558Z" fill="#aed9e1" stroke="#aed9e1" stroke-width="1.51"/><path d="M-132,168L-138,562L-92,407Z" fill="#c9ead5" stroke="#c9ead5" stroke-width="1.51"/><path d="M1451,1034L1493,941L1383,941Z" fill="#084081" stroke="#084081" stroke-width="1.51"/><path d="M1553,195L1527,159L1445,270Z" fill="#7b91a5" stroke="#7b91a5" stroke-width="1.51"/><path d="M1569,823L1494,777L1502,891Z" fill="#094c8e" stroke="#094c8e" stroke-width="1.51"/><path d="M1569,823L1576,748L1494,777Z" fill="#0b5597" stroke="#0b5597" stroke-width="1.51"/><path d="M1562,519L1553,195L1554,316Z" fill="#668a9d" stroke="#668a9d" stroke-width="1.51"/><path d="M-117,958L-34,979L-15,923Z" fill="#8d98b8" stroke="#8d98b8" stroke-width="1.51"/><path d="M-15,923L-34,979L78,982Z" fill="#8c98b8" stroke="#8c98b8" stroke-width="1.51"/><path d="M78,982L-122,1037L217,999Z" fill="#8a97b5" stroke="#8a97b5" stroke-width="1.51"/><path d="M340,1031L-122,1037L385,1039Z" fill="#8193ad" stroke="#8193ad" stroke-width="1.51"/><path d="M1376,1050L1451,1034L1383,941Z" fill="#094485" stroke="#094485" stroke-width="1.51"/><path d="M1554,316L1553,195L1445,270Z" fill="#748ea2" stroke="#748ea2" stroke-width="1.51"/><path d="M1576,748L1553,195L1562,519Z" fill="#467fa5" stroke="#467fa5" stroke-width="1.51"/><path d="M1504,1040L1569,823L1493,941Z" fill="#084081" stroke="#084081" stroke-width="1.51"/><path d="M1493,941L1569,823L1502,891Z" fill="#094284" stroke="#094284" stroke-width="1.51"/><path d="M143,-84L98,-130L58,-10Z" fill="#f1faea" stroke="#f1faea" stroke-width="1.51"/><path d="M58,-10L-9,-40L10,96Z" fill="#f4fbee" stroke="#f4fbee" stroke-width="1.51"/><path d="M211,-120L98,-130L143,-84Z" fill="#eef8e7" stroke="#eef8e7" stroke-width="1.51"/><path d="M292,-150L98,-130L211,-120Z" fill="#ebf7e4" stroke="#ebf7e4" stroke-width="1.51"/><path d="M1354,-55L1400,-134L1290,-119Z" fill="#92a3c4" stroke="#92a3c4" stroke-width="1.51"/><path d="M1521,-28L1444,-28L1431,99Z" fill="#8b97b7" stroke="#8b97b7" stroke-width="1.51"/><path d="M1537,97L1431,99L1527,159Z" fill="#8294ae" stroke="#8294ae" stroke-width="1.51"/><path d="M1553,195L1537,97L1527,159Z" fill="#7f92ab" stroke="#7f92ab" stroke-width="1.51"/><path d="M98,-130L-9,-40L58,-10Z" fill="#f4fbed" stroke="#f4fbed" stroke-width="1.51"/><path d="M-129,31L-132,168L10,96Z" fill="#edf8e7" stroke="#edf8e7" stroke-width="1.51"/><path d="M-99,263L-132,168L-92,407Z" fill="#d9f0d6" stroke="#d9f0d6" stroke-width="1.51"/><path d="M1451,1034L1504,1040L1493,941Z" fill="#084081" stroke="#084081" stroke-width="1.51"/><path d="M1376,1050L1504,1040L1451,1034Z" fill="#084081" stroke="#084081" stroke-width="1.51"/><path d="M1444,-28L1400,-134L1354,-55Z" fill="#8f9dbd" stroke="#8f9dbd" stroke-width="1.51"/><path d="M1290,-119L1400,-134L961,-134Z" fill="#98b3d0" stroke="#98b3d0" stroke-width="1.51"/><path d="M961,-134L1400,-134L292,-150Z" fill="#add8e1" stroke="#add8e1" stroke-width="1.51"/><path d="M1488,-76L1400,-134L1444,-28Z" fill="#8d98b8" stroke="#8d98b8" stroke-width="1.51"/><path d="M-74,829L-117,958L-15,923Z" fill="#8d98b8" stroke="#8d98b8" stroke-width="1.51"/><path d="M-138,562L-117,958L-73,757Z" fill="#98b4d1" stroke="#98b4d1" stroke-width="1.51"/><path d="M1536,-94L1521,-28L1537,97Z" fill="#8d98b8" stroke="#8d98b8" stroke-width="1.51"/><path d="M1537,97L1521,-28L1431,99Z" fill="#8896b3" stroke="#8896b3" stroke-width="1.51"/><path d="M1521,-28L1488,-76L1444,-28Z" fill="#8d98b8" stroke="#8d98b8" stroke-width="1.51"/><path d="M-9,-40L-129,31L10,96Z" fill="#f4fbed" stroke="#f4fbed" stroke-width="1.51"/><path d="M-86,-42L-129,31L-9,-40Z" fill="#f7fcf0" stroke="#f7fcf0" stroke-width="1.51"/><path d="M-54,-97L-86,-42L-9,-40Z" fill="#f7fcf0" stroke="#f7fcf0" stroke-width="1.51"/><path d="M-117,958L-122,1037L-34,979Z" fill="#8d98b8" stroke="#8d98b8" stroke-width="1.51"/><path d="M-34,979L-122,1037L78,982Z" fill="#8d98b8" stroke="#8d98b8" stroke-width="1.51"/><path d="M385,1039L-122,1037L1376,1050Z" fill="#678a9d" stroke="#678a9d" stroke-width="1.51"/><path d="M-138,562L-122,1037L-117,958Z" fill="#91a2c2" stroke="#91a2c2" stroke-width="1.51"/><path d="M-86,-42L-101,-103L-129,31Z" fill="#f7fcf0" stroke="#f7fcf0" stroke-width="1.51"/><path d="M98,-130L-54,-97L-9,-40Z" fill="#f6fbef" stroke="#f6fbef" stroke-width="1.51"/><path d="M1521,-28L1536,-94L1488,-76Z" fill="#8d98b8" stroke="#8d98b8" stroke-width="1.51"/><path d="M1488,-76L1536,-94L1400,-134Z" fill="#8d98b8" stroke="#8d98b8" stroke-width="1.51"/><path d="M1553,195L1536,-94L1537,97Z" fill="#8796b3" stroke="#8796b3" stroke-width="1.51"/><path d="M-54,-97L-101,-103L-86,-42Z" fill="#f7fcf0" stroke="#f7fcf0" stroke-width="1.51"/><path d="M98,-130L-101,-103L-54,-97Z" fill="#f7fcf0" stroke="#f7fcf0" stroke-width="1.51"/></svg>